<?xml version="1.0" encoding="utf-8"?>
<!-- Generator: Adobe Illustrator 23.0.3, SVG Export Plug-In . SVG Version: 6.00 Build 0)  -->
<svg version="1.1" id="Layer_1" xmlns="http://www.w3.org/2000/svg" xmlns:xlink="http://www.w3.org/1999/xlink" x="0px" y="0px"
	 viewBox="0 0 400 400" style="enable-background:new 0 0 400 400;" xml:space="preserve">
<style type="text/css">
	.st0{fill:#1DBFD7;}
	.st1{fill:#267DC1;}
</style>
<g>
	<g>
		<polygon class="st0" points="308.3,301.4 195.8,301.4 196.8,292.6 309.8,292.6 		"/>
		<polygon class="st0" points="335.6,286.2 173.2,286.2 174.6,277.4 337.8,277.4 		"/>
		<polygon class="st0" points="351,271 160,271 161.6,262.2 353.5,262.2 		"/>
		<polygon class="st0" points="362,255.8 296.5,255.8 297.1,246.9 362.8,246.9 		"/>
		<polygon class="st0" points="186,255.8 146.7,255.8 147,246.9 186.5,246.9 		"/>
		<polygon class="st0" points="223.9,255.8 192.4,255.8 192.7,246.9 224.3,246.9 		"/>
		<polygon class="st0" points="369.4,240.5 305.9,240.5 306.4,231.7 370.2,231.7 		"/>
		<polygon class="st0" points="381.6,148.7 312.7,148.7 313.3,139.8 382.5,139.8 		"/>
		<polygon class="st0" points="382.1,163.9 350.5,163.9 350.8,155.1 382.5,155.1 		"/>
		<polygon class="st0" points="343.7,174.7 309.3,174.7 309.6,165.9 344.2,165.9 		"/>
		<polygon class="st0" points="378.8,118.2 361.8,118.2 362,109.4 379,109.4 		"/>
		<polygon class="st0" points="376.1,133.5 302.4,133.5 303.1,124.6 377.1,124.6 		"/>
		<polygon class="st1" points="211.3,240.5 45.3,240.5 46.7,231.7 213.5,231.7 		"/>
		<polygon class="st1" points="217.3,225.3 17.5,225.3 19.3,216.5 219.9,216.5 		"/>
		<polygon class="st1" points="217.3,210.1 20.5,210.1 22.2,201.2 219.9,201.2 		"/>
		<polygon class="st1" points="66.6,194.4 22.9,194.4 23.3,185.5 67.1,185.5 		"/>
		<polygon class="st1" points="87.4,179.6 24.9,179.6 25.4,170.8 88.3,170.8 		"/>
		<polygon class="st1" points="91,163.9 40.1,163.9 40.6,155.1 91.7,155.1 		"/>
		<polygon class="st1" points="93.3,148.7 29.3,148.7 29.9,139.8 94.1,139.8 		"/>
		<polygon class="st1" points="95.3,133.5 31.3,133.5 31.8,124.6 96.1,124.6 		"/>
		<polygon class="st1" points="98.2,118.2 34.2,118.2 34.8,109.4 99.1,109.4 		"/>
		<polygon class="st1" points="97.3,103 36.7,103 37.2,94.2 98.1,94.2 		"/>
		<polygon class="st1" points="102.7,87.8 39.1,87.8 39.7,78.9 103.5,78.9 		"/>
		<polygon class="st1" points="105.8,72.6 55.3,72.6 55.8,63.7 106.4,63.7 		"/>
		<polygon class="st1" points="238.9,72.6 153.6,72.6 154.3,63.7 240,63.7 		"/>
		<polygon class="st1" points="247.9,87.8 177.2,87.8 177.8,78.9 248.9,78.9 		"/>
		<polygon class="st1" points="217.9,103 181.6,103 181.9,94.2 218.4,94.2 		"/>
		<polygon class="st1" points="225.3,118.2 186.5,118.2 186.8,109.4 225.8,109.4 		"/>
		<polygon class="st1" points="255.7,133.5 179.1,133.5 179.8,124.6 256.7,124.6 		"/>
		<polygon class="st1" points="247.8,148.7 166.4,148.7 167.1,139.8 248.9,139.8 		"/>
		<polygon class="st1" points="242.9,163.9 159,163.9 159.7,155.1 244,155.1 		"/>
		<polygon class="st1" points="225.3,179.1 153.6,179.1 154.2,170.3 226.3,170.3 		"/>
		<polygon class="st1" points="249.7,179.1 238.1,179.1 239,170.3 250.8,170.3 		"/>
		<polygon class="st1" points="32.8,103 28.3,103 28.7,94.2 33.2,94.2 		"/>
		<polygon class="st1" points="225.3,194.9 148.7,194.9 149.3,186 226.3,186 		"/>
		<polygon class="st1" points="226.4,57.3 44.5,57.3 46.1,48.5 228.7,48.5 		"/>
		<polygon class="st1" points="206.5,42.1 47,42.1 48.4,33.3 208.6,33.3 		"/>
		<polygon class="st1" points="55,28.8 26.4,28.8 26.6,20 55.3,20 		"/>
		<polygon class="st1" points="101.3,194.4 81.9,194.4 82,185.5 101.5,185.5 		"/>
		<polygon class="st0" points="319.7,87.8 290.6,87.8 290.9,78.9 320.1,78.9 		"/>
		<polygon class="st0" points="286.8,87.8 261.2,87.8 261.4,78.9 287.2,78.9 		"/>
		<polygon class="st0" points="351.7,103 216.9,103 218.1,94.2 353.5,94.2 		"/>
		<polygon class="st0" points="351.8,118.2 224.1,118.2 225.2,109.4 353.5,109.4 		"/>
	</g>
	<g>
		<g>
			<path class="st1" d="M45.3,346.5c-2.6-3.4-6.3-5.1-11-5.1H20.3v37h14.1c4.3,0,7.7-1.4,10.3-4.3c3-3.3,4.5-8,4.5-14.2
				C49.2,354.3,47.9,349.9,45.3,346.5L45.3,346.5z M43.6,367.1c-1.6,4.8-4.9,7.2-10,7.2H25v-28.6h8.6c1.7,0,3.1,0.3,4.4,0.8
				c4.3,1.8,6.5,6.3,6.5,13.6C44.5,362.7,44.2,365.1,43.6,367.1z"/>
			<path class="st1" d="M34.4,378.9H19.8V341h14.6c4.8,0,8.6,1.8,11.3,5.3l0,0c2.6,3.4,3.9,7.9,3.9,13.6c0,6.2-1.6,11.1-4.6,14.5
				C42.4,377.4,38.8,378.9,34.4,378.9z M20.8,377.9h13.6c4.1,0,7.5-1.4,9.9-4.2c2.9-3.2,4.4-7.9,4.4-13.9c0-5.5-1.2-9.8-3.7-13l0,0
				c-2.5-3.2-6.1-4.9-10.6-4.9H20.8V377.9z M33.6,374.7h-9.1v-29.6h9.1c1.7,0,3.3,0.3,4.6,0.8c4.5,1.8,6.8,6.6,6.8,14
				c0,2.8-0.3,5.2-1,7.2l0,0C42.4,372.2,38.9,374.7,33.6,374.7z M25.5,373.8h8.1c4.9,0,8-2.2,9.5-6.8c0.6-1.9,0.9-4.3,0.9-6.9
				c0-7-2.1-11.5-6.2-13.1c-1.2-0.5-2.7-0.7-4.3-0.7h-8.1V373.8z"/>
		</g>
		<g>
			<polygon class="st1" points="85.9,357.4 67.2,357.4 67.2,341.5 62.5,341.5 62.5,378.4 67.2,378.4 67.2,361.6 85.9,361.6 
				85.9,378.4 90.5,378.4 90.5,341.5 85.9,341.5 			"/>
			<path class="st1" d="M91,378.9h-5.6v-16.8H67.7v16.8H62V341h5.6v16h17.7v-16H91V378.9z M86.4,377.9H90v-36h-3.6v16H66.7v-16H63
				v36h3.7v-16.8h19.6V377.9z"/>
		</g>
		<g>
			<path class="st1" d="M115,341.5l-12.9,37h4.9l3.8-11.1h14l3.7,11.1h5.2l-12.8-37H115z M111.9,363.4l6-16.8l5.6,16.8H111.9z"/>
			<path class="st1" d="M134.4,378.9h-6.2l-3.7-11.1h-13.3l-3.8,11.1h-6l13.3-37.9h6.7L134.4,378.9z M128.9,377.9h4.1l-12.4-36h-5.3
				l-12.6,36h3.9l3.8-11.1h14.7L128.9,377.9z M124.2,363.9h-13l6.7-18.8L124.2,363.9z M112.6,362.9h10.2l-4.9-14.8L112.6,362.9z"/>
		</g>
		<g>
			<polygon class="st1" points="173.5,341.5 167.5,341.5 149.4,360.2 149.4,341.5 144.8,341.5 144.8,378.4 149.4,378.4 149.4,365.5 
				155.4,359.4 168.2,378.4 173.7,378.4 158.7,356.5 			"/>
			<path class="st1" d="M174.6,378.9h-6.7l-0.1-0.2l-12.5-18.5l-5.4,5.5v13.2h-5.6V341h5.6v18l17.4-18h7.4l-15.4,15.6L174.6,378.9z
				 M168.4,377.9h4.3l-14.7-21.4l14.3-14.5h-4.6l-18.8,19.5v-19.5h-3.6v36h3.6v-12.6l6.5-6.6L168.4,377.9z"/>
		</g>
		<g>
			<path class="st1" d="M194.7,341.5l-12.9,37h4.9l3.8-11.1h14l3.7,11.1h5.2l-12.8-37H194.7z M191.7,363.4l6-16.8l5.6,16.8H191.7z"
				/>
			<path class="st1" d="M214.2,378.9h-6.2l-3.7-11.1h-13.3l-3.8,11.1h-6l13.3-37.9h6.7L214.2,378.9z M208.6,377.9h4.1l-12.4-36h-5.3
				l-12.6,36h3.9l3.8-11.1h14.7L208.6,377.9z M204,363.9h-13l6.7-18.8L204,363.9z M192.4,362.9h10.2l-4.9-14.8L192.4,362.9z"/>
		</g>
		<g>
			<path class="st1" d="M248,370.6c-0.3,0.7-0.7,1.3-1.2,1.8c-1.7,2-4.1,3-7.3,3c-3.3,0-6-1.2-8.1-3.5c-2.5-2.7-3.7-6.6-3.7-11.6
				c0-4.5,0.9-8.1,2.8-10.8c2.1-3,4.9-4.5,8.6-4.5c0.5,0,1,0,1.5,0.1c2.5,0.3,4.4,1,5.7,2.3c0.2,0.2,0.3,0.3,0.5,0.5
				c0.9,1.1,1.6,2.8,2.1,5.1h4.7c-0.2-1-0.4-2-0.7-2.9c-1.9-6.2-6.4-9.2-13.3-9.2c-5,0-8.8,1.5-11.5,4.6c-0.3,0.4-0.7,0.8-1,1.2
				c-2.7,3.6-4.1,8.2-4.1,13.7c0,0.8,0,1.6,0.1,2.4c0.4,5.2,2.2,9.3,5.2,12.5c2.7,2.9,6.4,4.3,11.1,4.3c8.9,0,13.9-4.9,15-14.6h-4.8
				C249.3,367.3,248.7,369.2,248,370.6z"/>
			<path class="st1" d="M239.5,380c-4.8,0-8.6-1.5-11.4-4.4c-3.1-3.2-4.9-7.5-5.3-12.8c-0.1-0.8-0.1-1.6-0.1-2.4
				c0-5.6,1.4-10.3,4.2-14c0.3-0.4,0.7-0.9,1-1.2c2.8-3.2,6.8-4.8,11.9-4.8c7.1,0,11.8,3.2,13.8,9.6c0.3,0.9,0.5,1.9,0.7,2.9
				l0.1,0.6h-5.7l-0.1-0.4c-0.5-2.2-1.1-3.8-2-4.9l-0.5-0.5c-1.2-1.2-3-1.9-5.4-2.1c-0.5,0-1-0.1-1.5-0.1c-3.5,0-6.2,1.4-8.2,4.2
				c-1.8,2.6-2.7,6.2-2.7,10.6c0,4.9,1.2,8.7,3.6,11.3c2,2.2,4.6,3.3,7.7,3.3c3,0,5.3-0.9,6.9-2.8c0.4-0.5,0.8-1.1,1.1-1.7l0,0
				c0.7-1.3,1.2-3.2,1.6-5.6l0.1-0.4h5.8l-0.1,0.5C253.8,374.9,248.6,380,239.5,380z M239.7,341.3c-4.8,0-8.5,1.5-11.2,4.5
				c-0.3,0.4-0.7,0.8-1,1.2c-2.7,3.5-4,8.1-4,13.4c0,0.8,0,1.6,0.1,2.3c0.4,5.1,2.1,9.1,5.1,12.2c2.6,2.7,6.2,4.1,10.7,4.1
				c8.5,0,13.3-4.5,14.5-13.6h-3.8c-0.4,2.3-0.9,4.1-1.6,5.4c-0.3,0.7-0.7,1.3-1.2,1.9c-1.8,2.1-4.4,3.1-7.7,3.1
				c-3.4,0-6.3-1.2-8.5-3.6c-2.5-2.8-3.8-6.8-3.8-12c0-4.6,1-8.3,2.9-11.1c2.1-3.1,5.2-4.7,9-4.7c0.5,0,1,0,1.5,0.1
				c2.6,0.3,4.6,1.1,6,2.4l0.5,0.5c1,1.1,1.7,2.8,2.2,4.9h3.7c-0.2-0.8-0.4-1.5-0.6-2.2C250.6,344.2,246.4,341.3,239.7,341.3z"/>
		</g>
		<g>
			<path class="st1" d="M294.6,345.6c-3.2-3.2-7.2-4.8-12.2-4.8c-0.8,0-1.7,0.1-2.5,0.2c-4.5,0.6-8,2.5-10.7,5.9
				c-2.8,3.5-4.3,8-4.3,13.4c0,0.9,0,1.8,0.1,2.7c0.5,5,2.3,9.1,5.4,12.1c3.2,3,7.1,4.6,12,4.6c0.1,0,0.3,0,0.4,0
				c4.3-0.1,8-1.4,10.8-3.9c1.2-1,2.2-2.2,3.1-3.5c2.1-3.4,3.2-7.2,3.2-11.6c0-0.7,0-1.4-0.1-2C299.5,353.1,297.7,348.8,294.6,345.6
				z M295.2,360.8c-0.1,4.4-1.4,7.9-3.8,10.6c-2.4,2.6-5.4,3.9-9.1,3.9c-0.1,0-0.1,0-0.1,0c-3.8,0-6.8-1.4-9.1-4.1
				c-2.4-2.8-3.7-6.5-3.7-11.1c0-0.1,0-0.2,0-0.3c0.1-4.6,1.3-8.2,3.8-11c2.3-2.6,5.4-4,9.1-4c3.8,0,6.8,1.3,9.2,3.9
				c2.5,2.8,3.7,6.6,3.7,11.5C295.2,360.5,295.2,360.7,295.2,360.8z"/>
			<path class="st1" d="M282.4,380c-4.9,0-9.1-1.6-12.3-4.7c-3.2-3.1-5.1-7.3-5.6-12.4c-0.1-0.9-0.1-1.8-0.1-2.7
				c0-5.5,1.5-10.1,4.4-13.7c2.8-3.4,6.5-5.5,11.1-6c0.8-0.1,1.7-0.2,2.5-0.2c5.1,0,9.3,1.7,12.6,4.9l0,0c3.2,3.3,5,7.7,5.4,13.2
				c0.1,0.7,0.1,1.4,0.1,2.1c0,4.4-1.1,8.4-3.3,11.8c-0.9,1.4-2,2.6-3.2,3.7c-3,2.6-6.7,3.9-11.1,4H282.4z M282.3,341.3
				c-0.8,0-1.6,0.1-2.4,0.2c-4.3,0.5-7.8,2.5-10.4,5.7c-2.8,3.4-4.2,7.8-4.2,13.1c0,0.9,0,1.8,0.1,2.6c0.5,4.9,2.3,8.9,5.3,11.8
				c3,2.9,7,4.4,11.6,4.4h0.4c4.2-0.1,7.7-1.4,10.5-3.8c1.1-1,2.1-2.1,3-3.4c2.1-3.3,3.1-7.1,3.1-11.3c0-0.7,0-1.4-0.1-2
				c-0.4-5.2-2.1-9.5-5.1-12.6l0,0C291.2,342.9,287.2,341.3,282.3,341.3z M282.4,375.8h-0.1c-3.9,0-7.1-1.5-9.5-4.3
				c-2.5-2.9-3.8-6.7-3.8-11.4v-0.3c0.1-4.7,1.4-8.5,3.9-11.3c2.4-2.7,5.6-4.1,9.5-4.1c3.9,0,7.1,1.4,9.5,4.1
				c2.6,2.9,3.9,6.9,3.9,11.8v0.5c-0.1,4.5-1.4,8.2-3.9,10.9C289.4,374.5,286.2,375.8,282.4,375.8z M282.3,345.5
				c-3.6,0-6.5,1.3-8.8,3.8c-2.4,2.6-3.6,6.2-3.6,10.6v0.3c0,4.5,1.2,8.1,3.5,10.8c2.2,2.6,5.2,3.9,8.8,3.9h0.1
				c3.5,0,6.5-1.3,8.7-3.7c2.3-2.6,3.6-6,3.7-10.3v-0.5c0-4.7-1.2-8.4-3.6-11.1C288.9,346.7,286,345.5,282.3,345.5z"/>
		</g>
		<g>
			<polygon class="st1" points="317.3,341.5 312.7,341.5 312.7,378.4 335.3,378.4 335.3,374.3 317.3,374.3 			"/>
			<path class="st1" d="M335.8,378.9h-23.6V341h5.6v32.8h18V378.9z M313.2,377.9h21.6v-3.2h-18v-32.8h-3.6V377.9z"/>
		</g>
		<g>
			<path class="st1" d="M379.6,358.4c-0.4-5.4-2.1-9.7-5.3-12.9c-3.2-3.2-7.2-4.8-12.2-4.8c-0.8,0-1.7,0.1-2.5,0.2
				c-4.5,0.6-8,2.5-10.7,5.9c-2.8,3.5-4.3,8-4.3,13.4c0,0.9,0,1.8,0.1,2.7c0.5,5,2.3,9.1,5.4,12.1c3.2,3,7.1,4.6,12,4.6
				c0.1,0,0.3,0,0.4,0c4.3-0.1,8-1.4,10.8-3.9c1.2-1,2.2-2.2,3.1-3.5c2.1-3.4,3.2-7.2,3.2-11.6C379.7,359.8,379.6,359.1,379.6,358.4
				z M375,360.8c-0.1,4.4-1.4,7.9-3.8,10.6c-2.4,2.6-5.4,3.9-9.1,3.9c-0.1,0-0.1,0-0.1,0c-3.8,0-6.8-1.4-9.1-4.1
				c-2.4-2.8-3.7-6.5-3.7-11.1c0-0.1,0-0.2,0-0.3c0.1-4.6,1.3-8.2,3.8-11c2.3-2.6,5.4-4,9.1-4c3.8,0,6.8,1.3,9.2,3.9
				c2.5,2.8,3.7,6.6,3.7,11.5C375,360.5,375,360.7,375,360.8z"/>
			<path class="st1" d="M362.1,380c-4.9,0-9.1-1.6-12.3-4.7c-3.2-3.1-5.1-7.3-5.6-12.4c-0.1-0.9-0.1-1.8-0.1-2.7
				c0-5.5,1.5-10.1,4.4-13.7c2.8-3.4,6.5-5.5,11.1-6c0.8-0.1,1.7-0.2,2.5-0.2c5.1,0,9.3,1.7,12.6,4.9c3.2,3.3,5,7.7,5.4,13.2
				c0.1,0.7,0.1,1.4,0.1,2.1c0,4.4-1.1,8.4-3.3,11.8c-0.9,1.4-2,2.6-3.2,3.7c-3,2.6-6.7,3.9-11.1,4H362.1z M362.1,341.3
				c-0.8,0-1.6,0.1-2.4,0.2c-4.3,0.5-7.8,2.5-10.4,5.7c-2.8,3.4-4.2,7.8-4.2,13.1c0,0.9,0,1.8,0.1,2.6c0.5,4.9,2.3,8.9,5.3,11.8
				c3,2.9,7,4.4,11.6,4.4h0.4c4.2-0.1,7.7-1.4,10.5-3.8c1.1-1,2.1-2.1,3-3.4c2.1-3.3,3.1-7.1,3.1-11.3c0-0.7,0-1.4-0.1-2l0,0
				c-0.4-5.2-2.1-9.5-5.1-12.6C370.9,342.9,366.9,341.3,362.1,341.3z M362.1,375.8H362c-3.9,0-7.1-1.5-9.5-4.3
				c-2.5-2.9-3.8-6.7-3.8-11.4v-0.3c0.1-4.7,1.4-8.5,3.9-11.3c2.4-2.7,5.6-4.1,9.5-4.1c3.9,0,7.1,1.4,9.5,4.1
				c2.6,2.9,3.9,6.9,3.9,11.8v0.5c-0.1,4.5-1.4,8.2-3.9,10.9C369.1,374.5,365.9,375.8,362.1,375.8z M362.1,345.5
				c-3.6,0-6.5,1.3-8.8,3.8c-2.4,2.6-3.6,6.2-3.6,10.6v0.3c0,4.5,1.2,8.1,3.5,10.8c2.2,2.6,5.2,3.9,8.8,3.9h0.1
				c3.5,0,6.5-1.3,8.7-3.7c2.3-2.6,3.6-6,3.7-10.3v-0.5c0-4.7-1.2-8.4-3.6-11.1C368.7,346.7,365.7,345.5,362.1,345.5z"/>
		</g>
	</g>
</g>
</svg>
